<svg width="437" height="444" viewBox="0 0 437 444" fill="none" xmlns="http://www.w3.org/2000/svg">
<circle cx="219.5" cy="290.5" r="8.5" fill="#D9D9D9"/>
<circle cx="219.5" cy="155.5" r="8.5" fill="#D9D9D9"/>
<circle cx="281.5" cy="197.5" r="8.5" fill="#D9D9D9"/>
<circle cx="286.5" cy="222.5" r="8.5" fill="#D9D9D9"/>
<circle cx="281.5" cy="247.5" r="8.5" fill="#D9D9D9"/>
<circle cx="266.5" cy="270.5" r="8.5" fill="#D9D9D9"/>
<circle cx="245.5" cy="285.5" r="8.5" fill="#D9D9D9"/>
<circle cx="245.5" cy="160.5" r="8.5" fill="#D9D9D9"/>
<circle cx="266.5" cy="174.5" r="8.5" fill="#D9D9D9"/>
<circle cx="8.5" cy="8.5" r="8.5" transform="matrix(-1 0 0 1 166 189)" fill="#D9D9D9"/>
<circle cx="8.5" cy="8.5" r="8.5" transform="matrix(-1 0 0 1 161 214)" fill="#D9D9D9"/>
<circle cx="8.5" cy="8.5" r="8.5" transform="matrix(-1 0 0 1 166 239)" fill="#D9D9D9"/>
<circle cx="8.5" cy="8.5" r="8.5" transform="matrix(-1 0 0 1 181 262)" fill="#D9D9D9"/>
<circle cx="8.5" cy="8.5" r="8.5" transform="matrix(-1 0 0 1 202 277)" fill="#D9D9D9"/>
<circle cx="8.5" cy="8.5" r="8.5" transform="matrix(-1 0 0 1 202 152)" fill="#D9D9D9"/>
<circle cx="8.5" cy="8.5" r="8.5" transform="matrix(-1 0 0 1 181 166)" fill="#D9D9D9"/>
<circle cx="9" cy="9" r="9" transform="matrix(1 0 0 -1 190 334)" fill="#D9D9D9"/>
<circle cx="9" cy="9" r="9" transform="matrix(1 0 0 -1 231 334)" fill="#D9D9D9"/>
<circle cx="9" cy="9" r="9" transform="matrix(1 0 0 -1 269 319)" fill="#D9D9D9"/>
<circle cx="9" cy="9" r="9" transform="matrix(1 0 0 -1 298 290)" fill="#D9D9D9"/>
<circle cx="9" cy="9" r="9" transform="matrix(1 0 0 -1 152 319)" fill="#D9D9D9"/>
<circle cx="9" cy="9" r="9" transform="matrix(1 0 0 -1 313 252)" fill="#D9D9D9"/>
<circle cx="9" cy="9" r="9" transform="matrix(1 0 0 -1 107 252)" fill="#D9D9D9"/>
<circle cx="9" cy="9" r="9" transform="matrix(1 0 0 -1 123 290)" fill="#D9D9D9"/>
<circle cx="199" cy="120" r="9" fill="#D9D9D9"/>
<circle cx="240" cy="120" r="9" fill="#D9D9D9"/>
<circle cx="278" cy="135" r="9" fill="#D9D9D9"/>
<circle cx="307" cy="164" r="9" fill="#D9D9D9"/>
<circle cx="161" cy="135" r="9" fill="#D9D9D9"/>
<circle cx="322" cy="202" r="9" fill="#D9D9D9"/>
<circle cx="116" cy="202" r="9" fill="#D9D9D9"/>
<circle cx="132" cy="164" r="9" fill="#D9D9D9"/>
<circle cx="272.5" cy="95.5" r="9.5" fill="#D9D9D9"/>
<circle cx="317.5" cy="124.5" r="9.5" fill="#D9D9D9"/>
<circle cx="121.5" cy="124.5" r="9.5" fill="#D9D9D9"/>
<circle cx="348.5" cy="169.5" r="9.5" fill="#D9D9D9"/>
<circle cx="90.5" cy="168.5" r="9.5" fill="#D9D9D9"/>
<circle cx="358.5" cy="223.5" r="9.5" fill="#D9D9D9"/>
<circle cx="80.5" cy="223.5" r="9.5" fill="#D9D9D9"/>
<circle cx="219.5" cy="84.5" r="9.5" fill="#D9D9D9"/>
<circle cx="166.5" cy="94.5" r="9.5" fill="#D9D9D9"/>
<circle cx="9.5" cy="9.5" r="9.5" transform="matrix(1 0 0 -1 263 358)" fill="#D9D9D9"/>
<circle cx="9.5" cy="9.5" r="9.5" transform="matrix(1 0 0 -1 308 329)" fill="#D9D9D9"/>
<circle cx="9.5" cy="9.5" r="9.5" transform="matrix(1 0 0 -1 112 329)" fill="#D9D9D9"/>
<circle cx="9.5" cy="9.5" r="9.5" transform="matrix(1 0 0 -1 339 284)" fill="#D9D9D9"/>
<circle cx="9.5" cy="9.5" r="9.5" transform="matrix(1 0 0 -1 81 285)" fill="#D9D9D9"/>
<circle cx="9.5" cy="9.5" r="9.5" transform="matrix(1 0 0 -1 210 369)" fill="#D9D9D9"/>
<circle cx="9.5" cy="9.5" r="9.5" transform="matrix(1 0 0 -1 157 359)" fill="#D9D9D9"/>
<circle cx="381" cy="256" r="9" fill="#D9D9D9"/>
<circle cx="357" cy="315" r="9" fill="#D9D9D9"/>
<circle cx="310" cy="359" r="9" fill="#D9D9D9"/>
<circle cx="253" cy="385" r="9" fill="#D9D9D9"/>
<circle cx="186" cy="385" r="9" fill="#D9D9D9"/>
<circle cx="128" cy="358" r="9" fill="#D9D9D9"/>
<circle cx="82" cy="316" r="9" fill="#D9D9D9"/>
<circle cx="58" cy="256" r="9" fill="#D9D9D9"/>
<circle cx="9" cy="9" r="9" transform="matrix(1 0 0 -1 372 197)" fill="#D9D9D9"/>
<circle cx="9" cy="9" r="9" transform="matrix(1 0 0 -1 348 138)" fill="#D9D9D9"/>
<circle cx="9" cy="9" r="9" transform="matrix(1 0 0 -1 301 94)" fill="#D9D9D9"/>
<circle cx="9" cy="9" r="9" transform="matrix(1 0 0 -1 244 68)" fill="#D9D9D9"/>
<circle cx="9" cy="9" r="9" transform="matrix(1 0 0 -1 177 68)" fill="#D9D9D9"/>
<circle cx="9" cy="9" r="9" transform="matrix(1 0 0 -1 119 95)" fill="#D9D9D9"/>
<circle cx="9" cy="9" r="9" transform="matrix(1 0 0 -1 73 137)" fill="#D9D9D9"/>
<circle cx="9" cy="9" r="9" transform="matrix(1 0 0 -1 49 197)" fill="#D9D9D9"/>
<circle cx="347" cy="351" r="8" fill="#D9D9D9"/>
<circle cx="218" cy="402" r="8" fill="#D9D9D9"/>
<circle cx="92" cy="351" r="8" fill="#D9D9D9"/>
<circle cx="38" cy="223" r="8" fill="#D9D9D9"/>
<circle cx="92" cy="94" r="8" fill="#D9D9D9"/>
<circle cx="220" cy="42" r="8" fill="#D9D9D9"/>
<circle cx="347" cy="95" r="8" fill="#D9D9D9"/>
<circle cx="399" cy="222" r="8" fill="#D9D9D9"/>
<circle cx="241" cy="244" r="8" fill="#D9D9D9"/>
<circle cx="251" cy="223" r="8" fill="#D9D9D9"/>
<circle cx="241" cy="202" r="8" fill="#D9D9D9"/>
<circle cx="219" cy="191" r="8" fill="#D9D9D9"/>
<circle cx="198" cy="200" r="8" fill="#D9D9D9"/>
<circle cx="189" cy="222" r="8" fill="#D9D9D9"/>
<circle cx="197" cy="245" r="8" fill="#D9D9D9"/>
<circle cx="220" cy="254" r="8" fill="#D9D9D9"/>
<circle cx="219" cy="223" r="7" fill="#D9D9D9"/>
<circle cx="289" cy="390" r="7" fill="#D9D9D9"/>
<circle cx="387" cy="292" r="7" fill="#D9D9D9"/>
<circle cx="387" cy="153" r="7" fill="#D9D9D9"/>
<circle cx="288" cy="56" r="7" fill="#D9D9D9"/>
<circle cx="150" cy="56" r="7" fill="#D9D9D9"/>
<circle cx="53" cy="153" r="7" fill="#D9D9D9"/>
<circle cx="52" cy="291" r="7" fill="#D9D9D9"/>
<circle cx="150" cy="390" r="7" fill="#D9D9D9"/>
</svg>
